G04 #@! TF.FileFunction,Copper,L1,Top,Signal*
%FSLAX46Y46*%
G04 Gerber Fmt 4.6, Leading zero omitted, Abs format (unit mm)*
G04 Created by KiCad (PCBNEW 4.0.6-e0-6349~53~ubuntu16.04.1) date Wed May  3 10:51:49 2017*
%MOMM*%
%LPD*%
G01*
G04 APERTURE LIST*
%ADD10C,0.100000*%
%ADD11R,1.700000X1.700000*%
%ADD12O,1.700000X1.700000*%
%ADD13R,0.750000X0.800000*%
%ADD14R,0.800000X0.800000*%
%ADD15R,0.900000X0.500000*%
%ADD16C,5.000000*%
%ADD17O,2.000000X3.000000*%
%ADD18C,0.350000*%
%ADD19C,0.300000*%
G04 APERTURE END LIST*
D10*
D11*
X4500000Y3210000D03*
D12*
X4500000Y5750000D03*
X4500000Y8290000D03*
D13*
X9000000Y3750000D03*
X9000000Y2250000D03*
D14*
X30000000Y2200000D03*
X30000000Y3800000D03*
D15*
X11000000Y2250000D03*
X11000000Y3750000D03*
X28000000Y3750000D03*
X28000000Y2250000D03*
D16*
X29000000Y8500000D03*
X10000000Y8500000D03*
D17*
X14420000Y3000000D03*
X19500000Y3000000D03*
X24580000Y3000000D03*
D18*
X7600000Y4000000D02*
X7850000Y3750000D01*
X7850000Y3750000D02*
X9000000Y3750000D01*
X7600000Y5190000D02*
X7600000Y4000000D01*
X7290000Y5500000D02*
X7600000Y5190000D01*
X7290000Y5500000D02*
X7290000Y5485000D01*
X4500000Y8290000D02*
X7290000Y5500000D01*
X11000000Y3750000D02*
X11800000Y3750000D01*
X13500000Y5500000D02*
X19100000Y5500000D01*
X13500000Y5450000D02*
X13500000Y5500000D01*
X11800000Y3750000D02*
X13500000Y5450000D01*
X9000000Y3750000D02*
X11000000Y3750000D01*
X29550000Y5000000D02*
X26250000Y5000000D01*
X26250000Y5000000D02*
X25750000Y5500000D01*
X30000000Y3800000D02*
X30000000Y4550000D01*
X30000000Y4550000D02*
X29550000Y5000000D01*
X19100000Y5500000D02*
X19500000Y5100000D01*
X25750000Y5500000D02*
X19900000Y5500000D01*
X19900000Y5500000D02*
X19500000Y5100000D01*
X19500000Y3000000D02*
X19500000Y5100000D01*
X4500000Y5750000D02*
X5500000Y5750000D01*
X5500000Y5750000D02*
X6750000Y4500000D01*
X6750000Y4500000D02*
X6750000Y3250000D01*
X6750000Y3250000D02*
X7750000Y2250000D01*
X7750000Y2250000D02*
X9000000Y2250000D01*
X28000000Y2250000D02*
X29950000Y2250000D01*
X29950000Y2250000D02*
X30000000Y2200000D01*
X25750000Y750000D02*
X26500000Y1500000D01*
X4500000Y3210000D02*
X4500000Y1500000D01*
X4500000Y1500000D02*
X5250000Y750000D01*
X5250000Y750000D02*
X25750000Y750000D01*
X28000000Y3750000D02*
X27200000Y3750000D01*
X27200000Y3750000D02*
X26500000Y3050000D01*
X26500000Y3050000D02*
X26500000Y1500000D01*
D19*
G36*
X7458207Y10201582D02*
X7000522Y9099355D01*
X6999481Y7905881D01*
X7455241Y6802857D01*
X8298418Y5958207D01*
X9400645Y5500522D01*
X10594119Y5499481D01*
X11697143Y5955241D01*
X12541793Y6798418D01*
X12999478Y7900645D01*
X13000519Y9094119D01*
X12544759Y10197143D01*
X11818171Y10925000D01*
X27182889Y10925000D01*
X26458207Y10201582D01*
X26000522Y9099355D01*
X25999481Y7905881D01*
X26455241Y6802857D01*
X27298418Y5958207D01*
X27980456Y5675000D01*
X26529594Y5675000D01*
X26227297Y5977297D01*
X26008312Y6123619D01*
X25750000Y6175000D01*
X19900000Y6175000D01*
X19641689Y6123619D01*
X19641687Y6123618D01*
X19641688Y6123618D01*
X19500000Y6028945D01*
X19358312Y6123619D01*
X19100000Y6175000D01*
X13500000Y6175000D01*
X13241689Y6123619D01*
X13022703Y5977297D01*
X12922019Y5826613D01*
X11579065Y4483659D01*
X11450000Y4509795D01*
X10550000Y4509795D01*
X10364711Y4474931D01*
X10287117Y4425000D01*
X9792203Y4425000D01*
X9740425Y4505465D01*
X9573339Y4619630D01*
X9375000Y4659795D01*
X8625000Y4659795D01*
X8439711Y4624931D01*
X8275000Y4518942D01*
X8275000Y5190000D01*
X8264719Y5241688D01*
X8223619Y5448312D01*
X8077297Y5667297D01*
X5806458Y7938136D01*
X5876448Y8290000D01*
X5773685Y8806623D01*
X5481042Y9244594D01*
X5043071Y9537237D01*
X4526448Y9640000D01*
X4473552Y9640000D01*
X3956929Y9537237D01*
X3518958Y9244594D01*
X3226315Y8806623D01*
X3123552Y8290000D01*
X3226315Y7773377D01*
X3518958Y7335406D01*
X3956929Y7042763D01*
X4071366Y7020000D01*
X3956929Y6997237D01*
X3518958Y6704594D01*
X3226315Y6266623D01*
X3123552Y5750000D01*
X3226315Y5233377D01*
X3518958Y4795406D01*
X3871268Y4560000D01*
X3550544Y4560000D01*
X3366773Y4483880D01*
X3226121Y4343227D01*
X3150000Y4159456D01*
X3150000Y3360000D01*
X3275000Y3235000D01*
X4475000Y3235000D01*
X4475000Y3255000D01*
X4525000Y3255000D01*
X4525000Y3235000D01*
X5725000Y3235000D01*
X5850000Y3360000D01*
X5850000Y4159456D01*
X5773879Y4343227D01*
X5633227Y4483880D01*
X5449456Y4560000D01*
X5128732Y4560000D01*
X5481042Y4795406D01*
X5488636Y4806770D01*
X6075000Y4220406D01*
X6075000Y3250000D01*
X6126381Y2991688D01*
X6272703Y2772703D01*
X7272703Y1772703D01*
X7491689Y1626381D01*
X7750000Y1575000D01*
X8207797Y1575000D01*
X8259575Y1494535D01*
X8426661Y1380370D01*
X8625000Y1340205D01*
X9375000Y1340205D01*
X9560289Y1375069D01*
X9730465Y1484575D01*
X9844630Y1651661D01*
X9884795Y1850000D01*
X9884795Y2100000D01*
X10050000Y2100000D01*
X10050000Y1900544D01*
X10126120Y1716773D01*
X10266773Y1576121D01*
X10450544Y1500000D01*
X10850000Y1500000D01*
X10975000Y1625000D01*
X10975000Y2225000D01*
X11025000Y2225000D01*
X11025000Y1625000D01*
X11150000Y1500000D01*
X11549456Y1500000D01*
X11733227Y1576121D01*
X11873880Y1716773D01*
X11950000Y1900544D01*
X11950000Y2100000D01*
X11825000Y2225000D01*
X11025000Y2225000D01*
X10975000Y2225000D01*
X10175000Y2225000D01*
X10050000Y2100000D01*
X9884795Y2100000D01*
X9884795Y2650000D01*
X9849931Y2835289D01*
X9742517Y3002214D01*
X9792250Y3075000D01*
X10286343Y3075000D01*
X10351661Y3030370D01*
X10501631Y3000000D01*
X10450544Y3000000D01*
X10266773Y2923879D01*
X10126120Y2783227D01*
X10050000Y2599456D01*
X10050000Y2400000D01*
X10175000Y2275000D01*
X10975000Y2275000D01*
X10975000Y2295000D01*
X11025000Y2295000D01*
X11025000Y2275000D01*
X11825000Y2275000D01*
X11950000Y2400000D01*
X11950000Y2599456D01*
X11873880Y2783227D01*
X11733227Y2923879D01*
X11549456Y3000000D01*
X11502057Y3000000D01*
X11635289Y3025069D01*
X11712883Y3075000D01*
X11800000Y3075000D01*
X12058312Y3126381D01*
X12277297Y3272703D01*
X13013418Y4008824D01*
X12920000Y3539182D01*
X12920000Y2460818D01*
X13034181Y1886793D01*
X13359340Y1400158D01*
X13845975Y1074999D01*
X14420000Y960818D01*
X14994025Y1074999D01*
X15480660Y1400158D01*
X15805819Y1886793D01*
X15920000Y2460818D01*
X15920000Y3539182D01*
X15805819Y4113207D01*
X15480660Y4599842D01*
X15143687Y4825000D01*
X18776313Y4825000D01*
X18439340Y4599842D01*
X18114181Y4113207D01*
X18000000Y3539182D01*
X18000000Y2460818D01*
X18114181Y1886793D01*
X18439340Y1400158D01*
X18925975Y1074999D01*
X19500000Y960818D01*
X20074025Y1074999D01*
X20560660Y1400158D01*
X20885819Y1886793D01*
X21000000Y2460818D01*
X21000000Y3539182D01*
X20885819Y4113207D01*
X20560660Y4599842D01*
X20223687Y4825000D01*
X23856313Y4825000D01*
X23519340Y4599842D01*
X23194181Y4113207D01*
X23080000Y3539182D01*
X23080000Y2460818D01*
X23194181Y1886793D01*
X23519340Y1400158D01*
X24005975Y1074999D01*
X24580000Y960818D01*
X25154025Y1074999D01*
X25640660Y1400158D01*
X25965819Y1886793D01*
X26080000Y2460818D01*
X26080000Y3539182D01*
X25965819Y4113207D01*
X25640660Y4599842D01*
X25303687Y4825000D01*
X25470406Y4825000D01*
X25772703Y4522703D01*
X25991688Y4376381D01*
X26250000Y4325000D01*
X27167893Y4325000D01*
X27126120Y4283227D01*
X27050000Y4099456D01*
X27050000Y3900000D01*
X27175000Y3775000D01*
X27975000Y3775000D01*
X27975000Y3795000D01*
X28025000Y3795000D01*
X28025000Y3775000D01*
X28825000Y3775000D01*
X28950000Y3900000D01*
X28950000Y4099456D01*
X28873880Y4283227D01*
X28832107Y4325000D01*
X29115518Y4325000D01*
X29090205Y4200000D01*
X29090205Y3400000D01*
X29125069Y3214711D01*
X29234575Y3044535D01*
X29299032Y3000493D01*
X29244535Y2965425D01*
X29216914Y2925000D01*
X28713657Y2925000D01*
X28648339Y2969630D01*
X28498369Y3000000D01*
X28549456Y3000000D01*
X28733227Y3076121D01*
X28873880Y3216773D01*
X28950000Y3400544D01*
X28950000Y3600000D01*
X28825000Y3725000D01*
X28025000Y3725000D01*
X28025000Y3705000D01*
X27975000Y3705000D01*
X27975000Y3725000D01*
X27175000Y3725000D01*
X27050000Y3600000D01*
X27050000Y3400544D01*
X27126120Y3216773D01*
X27266773Y3076121D01*
X27450544Y3000000D01*
X27497943Y3000000D01*
X27364711Y2974931D01*
X27194535Y2865425D01*
X27080370Y2698339D01*
X27040205Y2500000D01*
X27040205Y2000000D01*
X27075069Y1814711D01*
X27184575Y1644535D01*
X27351661Y1530370D01*
X27550000Y1490205D01*
X28450000Y1490205D01*
X28635289Y1525069D01*
X28712883Y1575000D01*
X29150623Y1575000D01*
X29234575Y1444535D01*
X29401661Y1330370D01*
X29600000Y1290205D01*
X30400000Y1290205D01*
X30585289Y1325069D01*
X30755465Y1434575D01*
X30869630Y1601661D01*
X30909795Y1800000D01*
X30909795Y2600000D01*
X30874931Y2785289D01*
X30765425Y2955465D01*
X30700968Y2999507D01*
X30755465Y3034575D01*
X30869630Y3201661D01*
X30909795Y3400000D01*
X30909795Y4200000D01*
X30874931Y4385289D01*
X30765425Y4555465D01*
X30659519Y4627827D01*
X30633565Y4758311D01*
X30623619Y4808312D01*
X30477297Y5027297D01*
X30027297Y5477297D01*
X29841266Y5601600D01*
X30697143Y5955241D01*
X31425000Y6681829D01*
X31425000Y2056635D01*
X31306120Y1458985D01*
X30999662Y1000338D01*
X30541012Y693879D01*
X29943365Y575000D01*
X2056635Y575000D01*
X1458985Y693880D01*
X1000338Y1000338D01*
X693879Y1458988D01*
X575000Y2056635D01*
X575000Y3060000D01*
X3150000Y3060000D01*
X3150000Y2260544D01*
X3226121Y2076773D01*
X3366773Y1936120D01*
X3550544Y1860000D01*
X4350000Y1860000D01*
X4475000Y1985000D01*
X4475000Y3185000D01*
X4525000Y3185000D01*
X4525000Y1985000D01*
X4650000Y1860000D01*
X5449456Y1860000D01*
X5633227Y1936120D01*
X5773879Y2076773D01*
X5850000Y2260544D01*
X5850000Y3060000D01*
X5725000Y3185000D01*
X4525000Y3185000D01*
X4475000Y3185000D01*
X3275000Y3185000D01*
X3150000Y3060000D01*
X575000Y3060000D01*
X575000Y9443365D01*
X693879Y10041012D01*
X1000338Y10499662D01*
X1458985Y10806120D01*
X2056635Y10925000D01*
X8182889Y10925000D01*
X7458207Y10201582D01*
X7458207Y10201582D01*
G37*
X7458207Y10201582D02*
X7000522Y9099355D01*
X6999481Y7905881D01*
X7455241Y6802857D01*
X8298418Y5958207D01*
X9400645Y5500522D01*
X10594119Y5499481D01*
X11697143Y5955241D01*
X12541793Y6798418D01*
X12999478Y7900645D01*
X13000519Y9094119D01*
X12544759Y10197143D01*
X11818171Y10925000D01*
X27182889Y10925000D01*
X26458207Y10201582D01*
X26000522Y9099355D01*
X25999481Y7905881D01*
X26455241Y6802857D01*
X27298418Y5958207D01*
X27980456Y5675000D01*
X26529594Y5675000D01*
X26227297Y5977297D01*
X26008312Y6123619D01*
X25750000Y6175000D01*
X19900000Y6175000D01*
X19641689Y6123619D01*
X19641687Y6123618D01*
X19641688Y6123618D01*
X19500000Y6028945D01*
X19358312Y6123619D01*
X19100000Y6175000D01*
X13500000Y6175000D01*
X13241689Y6123619D01*
X13022703Y5977297D01*
X12922019Y5826613D01*
X11579065Y4483659D01*
X11450000Y4509795D01*
X10550000Y4509795D01*
X10364711Y4474931D01*
X10287117Y4425000D01*
X9792203Y4425000D01*
X9740425Y4505465D01*
X9573339Y4619630D01*
X9375000Y4659795D01*
X8625000Y4659795D01*
X8439711Y4624931D01*
X8275000Y4518942D01*
X8275000Y5190000D01*
X8264719Y5241688D01*
X8223619Y5448312D01*
X8077297Y5667297D01*
X5806458Y7938136D01*
X5876448Y8290000D01*
X5773685Y8806623D01*
X5481042Y9244594D01*
X5043071Y9537237D01*
X4526448Y9640000D01*
X4473552Y9640000D01*
X3956929Y9537237D01*
X3518958Y9244594D01*
X3226315Y8806623D01*
X3123552Y8290000D01*
X3226315Y7773377D01*
X3518958Y7335406D01*
X3956929Y7042763D01*
X4071366Y7020000D01*
X3956929Y6997237D01*
X3518958Y6704594D01*
X3226315Y6266623D01*
X3123552Y5750000D01*
X3226315Y5233377D01*
X3518958Y4795406D01*
X3871268Y4560000D01*
X3550544Y4560000D01*
X3366773Y4483880D01*
X3226121Y4343227D01*
X3150000Y4159456D01*
X3150000Y3360000D01*
X3275000Y3235000D01*
X4475000Y3235000D01*
X4475000Y3255000D01*
X4525000Y3255000D01*
X4525000Y3235000D01*
X5725000Y3235000D01*
X5850000Y3360000D01*
X5850000Y4159456D01*
X5773879Y4343227D01*
X5633227Y4483880D01*
X5449456Y4560000D01*
X5128732Y4560000D01*
X5481042Y4795406D01*
X5488636Y4806770D01*
X6075000Y4220406D01*
X6075000Y3250000D01*
X6126381Y2991688D01*
X6272703Y2772703D01*
X7272703Y1772703D01*
X7491689Y1626381D01*
X7750000Y1575000D01*
X8207797Y1575000D01*
X8259575Y1494535D01*
X8426661Y1380370D01*
X8625000Y1340205D01*
X9375000Y1340205D01*
X9560289Y1375069D01*
X9730465Y1484575D01*
X9844630Y1651661D01*
X9884795Y1850000D01*
X9884795Y2100000D01*
X10050000Y2100000D01*
X10050000Y1900544D01*
X10126120Y1716773D01*
X10266773Y1576121D01*
X10450544Y1500000D01*
X10850000Y1500000D01*
X10975000Y1625000D01*
X10975000Y2225000D01*
X11025000Y2225000D01*
X11025000Y1625000D01*
X11150000Y1500000D01*
X11549456Y1500000D01*
X11733227Y1576121D01*
X11873880Y1716773D01*
X11950000Y1900544D01*
X11950000Y2100000D01*
X11825000Y2225000D01*
X11025000Y2225000D01*
X10975000Y2225000D01*
X10175000Y2225000D01*
X10050000Y2100000D01*
X9884795Y2100000D01*
X9884795Y2650000D01*
X9849931Y2835289D01*
X9742517Y3002214D01*
X9792250Y3075000D01*
X10286343Y3075000D01*
X10351661Y3030370D01*
X10501631Y3000000D01*
X10450544Y3000000D01*
X10266773Y2923879D01*
X10126120Y2783227D01*
X10050000Y2599456D01*
X10050000Y2400000D01*
X10175000Y2275000D01*
X10975000Y2275000D01*
X10975000Y2295000D01*
X11025000Y2295000D01*
X11025000Y2275000D01*
X11825000Y2275000D01*
X11950000Y2400000D01*
X11950000Y2599456D01*
X11873880Y2783227D01*
X11733227Y2923879D01*
X11549456Y3000000D01*
X11502057Y3000000D01*
X11635289Y3025069D01*
X11712883Y3075000D01*
X11800000Y3075000D01*
X12058312Y3126381D01*
X12277297Y3272703D01*
X13013418Y4008824D01*
X12920000Y3539182D01*
X12920000Y2460818D01*
X13034181Y1886793D01*
X13359340Y1400158D01*
X13845975Y1074999D01*
X14420000Y960818D01*
X14994025Y1074999D01*
X15480660Y1400158D01*
X15805819Y1886793D01*
X15920000Y2460818D01*
X15920000Y3539182D01*
X15805819Y4113207D01*
X15480660Y4599842D01*
X15143687Y4825000D01*
X18776313Y4825000D01*
X18439340Y4599842D01*
X18114181Y4113207D01*
X18000000Y3539182D01*
X18000000Y2460818D01*
X18114181Y1886793D01*
X18439340Y1400158D01*
X18925975Y1074999D01*
X19500000Y960818D01*
X20074025Y1074999D01*
X20560660Y1400158D01*
X20885819Y1886793D01*
X21000000Y2460818D01*
X21000000Y3539182D01*
X20885819Y4113207D01*
X20560660Y4599842D01*
X20223687Y4825000D01*
X23856313Y4825000D01*
X23519340Y4599842D01*
X23194181Y4113207D01*
X23080000Y3539182D01*
X23080000Y2460818D01*
X23194181Y1886793D01*
X23519340Y1400158D01*
X24005975Y1074999D01*
X24580000Y960818D01*
X25154025Y1074999D01*
X25640660Y1400158D01*
X25965819Y1886793D01*
X26080000Y2460818D01*
X26080000Y3539182D01*
X25965819Y4113207D01*
X25640660Y4599842D01*
X25303687Y4825000D01*
X25470406Y4825000D01*
X25772703Y4522703D01*
X25991688Y4376381D01*
X26250000Y4325000D01*
X27167893Y4325000D01*
X27126120Y4283227D01*
X27050000Y4099456D01*
X27050000Y3900000D01*
X27175000Y3775000D01*
X27975000Y3775000D01*
X27975000Y3795000D01*
X28025000Y3795000D01*
X28025000Y3775000D01*
X28825000Y3775000D01*
X28950000Y3900000D01*
X28950000Y4099456D01*
X28873880Y4283227D01*
X28832107Y4325000D01*
X29115518Y4325000D01*
X29090205Y4200000D01*
X29090205Y3400000D01*
X29125069Y3214711D01*
X29234575Y3044535D01*
X29299032Y3000493D01*
X29244535Y2965425D01*
X29216914Y2925000D01*
X28713657Y2925000D01*
X28648339Y2969630D01*
X28498369Y3000000D01*
X28549456Y3000000D01*
X28733227Y3076121D01*
X28873880Y3216773D01*
X28950000Y3400544D01*
X28950000Y3600000D01*
X28825000Y3725000D01*
X28025000Y3725000D01*
X28025000Y3705000D01*
X27975000Y3705000D01*
X27975000Y3725000D01*
X27175000Y3725000D01*
X27050000Y3600000D01*
X27050000Y3400544D01*
X27126120Y3216773D01*
X27266773Y3076121D01*
X27450544Y3000000D01*
X27497943Y3000000D01*
X27364711Y2974931D01*
X27194535Y2865425D01*
X27080370Y2698339D01*
X27040205Y2500000D01*
X27040205Y2000000D01*
X27075069Y1814711D01*
X27184575Y1644535D01*
X27351661Y1530370D01*
X27550000Y1490205D01*
X28450000Y1490205D01*
X28635289Y1525069D01*
X28712883Y1575000D01*
X29150623Y1575000D01*
X29234575Y1444535D01*
X29401661Y1330370D01*
X29600000Y1290205D01*
X30400000Y1290205D01*
X30585289Y1325069D01*
X30755465Y1434575D01*
X30869630Y1601661D01*
X30909795Y1800000D01*
X30909795Y2600000D01*
X30874931Y2785289D01*
X30765425Y2955465D01*
X30700968Y2999507D01*
X30755465Y3034575D01*
X30869630Y3201661D01*
X30909795Y3400000D01*
X30909795Y4200000D01*
X30874931Y4385289D01*
X30765425Y4555465D01*
X30659519Y4627827D01*
X30633565Y4758311D01*
X30623619Y4808312D01*
X30477297Y5027297D01*
X30027297Y5477297D01*
X29841266Y5601600D01*
X30697143Y5955241D01*
X31425000Y6681829D01*
X31425000Y2056635D01*
X31306120Y1458985D01*
X30999662Y1000338D01*
X30541012Y693879D01*
X29943365Y575000D01*
X2056635Y575000D01*
X1458985Y693880D01*
X1000338Y1000338D01*
X693879Y1458988D01*
X575000Y2056635D01*
X575000Y3060000D01*
X3150000Y3060000D01*
X3150000Y2260544D01*
X3226121Y2076773D01*
X3366773Y1936120D01*
X3550544Y1860000D01*
X4350000Y1860000D01*
X4475000Y1985000D01*
X4475000Y3185000D01*
X4525000Y3185000D01*
X4525000Y1985000D01*
X4650000Y1860000D01*
X5449456Y1860000D01*
X5633227Y1936120D01*
X5773879Y2076773D01*
X5850000Y2260544D01*
X5850000Y3060000D01*
X5725000Y3185000D01*
X4525000Y3185000D01*
X4475000Y3185000D01*
X3275000Y3185000D01*
X3150000Y3060000D01*
X575000Y3060000D01*
X575000Y9443365D01*
X693879Y10041012D01*
X1000338Y10499662D01*
X1458985Y10806120D01*
X2056635Y10925000D01*
X8182889Y10925000D01*
X7458207Y10201582D01*
M02*
