G04 #@! TF.FileFunction,Legend,Top*
%FSLAX46Y46*%
G04 Gerber Fmt 4.6, Leading zero omitted, Abs format (unit mm)*
G04 Created by KiCad (PCBNEW 4.0.6-e0-6349~53~ubuntu16.04.1) date Wed May  3 10:51:49 2017*
%MOMM*%
%LPD*%
G01*
G04 APERTURE LIST*
%ADD10C,0.100000*%
%ADD11C,0.200000*%
%ADD12C,0.150000*%
%ADD13C,0.300000*%
%ADD14C,0.120000*%
G04 APERTURE END LIST*
D10*
D11*
X29800000Y2800000D02*
X30200000Y2800000D01*
X30000000Y3200000D02*
X30200000Y2800000D01*
X30000000Y3200000D02*
X29800000Y2800000D01*
D12*
X2482145Y1160714D02*
X2767859Y1160714D01*
X2589287Y660714D02*
X2589287Y1303571D01*
X2625002Y1375000D01*
X2696430Y1410714D01*
X2767859Y1410714D01*
X3339287Y660714D02*
X3339287Y1053571D01*
X3303573Y1125000D01*
X3232144Y1160714D01*
X3089287Y1160714D01*
X3017858Y1125000D01*
X3339287Y696429D02*
X3267858Y660714D01*
X3089287Y660714D01*
X3017858Y696429D01*
X2982144Y767857D01*
X2982144Y839286D01*
X3017858Y910714D01*
X3089287Y946429D01*
X3267858Y946429D01*
X3339287Y982143D01*
X3696429Y660714D02*
X3696429Y1410714D01*
X3696429Y1125000D02*
X3767858Y1160714D01*
X3910715Y1160714D01*
X3982144Y1125000D01*
X4017858Y1089286D01*
X4053572Y1017857D01*
X4053572Y803571D01*
X4017858Y732143D01*
X3982144Y696429D01*
X3910715Y660714D01*
X3767858Y660714D01*
X3696429Y696429D01*
X4375000Y660714D02*
X4375000Y1160714D01*
X4375000Y1017857D02*
X4410715Y1089286D01*
X4446429Y1125000D01*
X4517858Y1160714D01*
X4589286Y1160714D01*
X4839286Y660714D02*
X4839286Y1160714D01*
X4839286Y1410714D02*
X4803572Y1375000D01*
X4839286Y1339286D01*
X4875001Y1375000D01*
X4839286Y1410714D01*
X4839286Y1339286D01*
X5517858Y696429D02*
X5446429Y660714D01*
X5303572Y660714D01*
X5232144Y696429D01*
X5196429Y732143D01*
X5160715Y803571D01*
X5160715Y1017857D01*
X5196429Y1089286D01*
X5232144Y1125000D01*
X5303572Y1160714D01*
X5446429Y1160714D01*
X5517858Y1125000D01*
X6160715Y660714D02*
X6160715Y1053571D01*
X6125001Y1125000D01*
X6053572Y1160714D01*
X5910715Y1160714D01*
X5839286Y1125000D01*
X6160715Y696429D02*
X6089286Y660714D01*
X5910715Y660714D01*
X5839286Y696429D01*
X5803572Y767857D01*
X5803572Y839286D01*
X5839286Y910714D01*
X5910715Y946429D01*
X6089286Y946429D01*
X6160715Y982143D01*
X6839286Y660714D02*
X6839286Y1410714D01*
X6839286Y696429D02*
X6767857Y660714D01*
X6625000Y660714D01*
X6553572Y696429D01*
X6517857Y732143D01*
X6482143Y803571D01*
X6482143Y1017857D01*
X6517857Y1089286D01*
X6553572Y1125000D01*
X6625000Y1160714D01*
X6767857Y1160714D01*
X6839286Y1125000D01*
X7196428Y660714D02*
X7196428Y1160714D01*
X7196428Y1410714D02*
X7160714Y1375000D01*
X7196428Y1339286D01*
X7232143Y1375000D01*
X7196428Y1410714D01*
X7196428Y1339286D01*
X7875000Y1160714D02*
X7875000Y553571D01*
X7839286Y482143D01*
X7803571Y446429D01*
X7732143Y410714D01*
X7625000Y410714D01*
X7553571Y446429D01*
X7875000Y696429D02*
X7803571Y660714D01*
X7660714Y660714D01*
X7589286Y696429D01*
X7553571Y732143D01*
X7517857Y803571D01*
X7517857Y1017857D01*
X7553571Y1089286D01*
X7589286Y1125000D01*
X7660714Y1160714D01*
X7803571Y1160714D01*
X7875000Y1125000D01*
X8232142Y660714D02*
X8232142Y1160714D01*
X8232142Y1410714D02*
X8196428Y1375000D01*
X8232142Y1339286D01*
X8267857Y1375000D01*
X8232142Y1410714D01*
X8232142Y1339286D01*
X8482143Y1160714D02*
X8767857Y1160714D01*
X8589285Y1410714D02*
X8589285Y767857D01*
X8625000Y696429D01*
X8696428Y660714D01*
X8767857Y660714D01*
X9339285Y660714D02*
X9339285Y1053571D01*
X9303571Y1125000D01*
X9232142Y1160714D01*
X9089285Y1160714D01*
X9017856Y1125000D01*
X9339285Y696429D02*
X9267856Y660714D01*
X9089285Y660714D01*
X9017856Y696429D01*
X8982142Y767857D01*
X8982142Y839286D01*
X9017856Y910714D01*
X9089285Y946429D01*
X9267856Y946429D01*
X9339285Y982143D01*
X9803570Y660714D02*
X9732142Y696429D01*
X9696427Y767857D01*
X9696427Y1410714D01*
X10089284Y732143D02*
X10124999Y696429D01*
X10089284Y660714D01*
X10053570Y696429D01*
X10089284Y732143D01*
X10089284Y660714D01*
X10553570Y660714D02*
X10482142Y696429D01*
X10446427Y732143D01*
X10410713Y803571D01*
X10410713Y1017857D01*
X10446427Y1089286D01*
X10482142Y1125000D01*
X10553570Y1160714D01*
X10660713Y1160714D01*
X10732142Y1125000D01*
X10767856Y1089286D01*
X10803570Y1017857D01*
X10803570Y803571D01*
X10767856Y732143D01*
X10732142Y696429D01*
X10660713Y660714D01*
X10553570Y660714D01*
X11124998Y660714D02*
X11124998Y1160714D01*
X11124998Y1017857D02*
X11160713Y1089286D01*
X11196427Y1125000D01*
X11267856Y1160714D01*
X11339284Y1160714D01*
X11910713Y1160714D02*
X11910713Y553571D01*
X11874999Y482143D01*
X11839284Y446429D01*
X11767856Y410714D01*
X11660713Y410714D01*
X11589284Y446429D01*
X11910713Y696429D02*
X11839284Y660714D01*
X11696427Y660714D01*
X11624999Y696429D01*
X11589284Y732143D01*
X11553570Y803571D01*
X11553570Y1017857D01*
X11589284Y1089286D01*
X11624999Y1125000D01*
X11696427Y1160714D01*
X11839284Y1160714D01*
X11910713Y1125000D01*
D13*
X6000000Y4071429D02*
X6500000Y2571429D01*
X7000000Y4071429D01*
X6892857Y6500000D02*
X6750000Y6571429D01*
X6535714Y6571429D01*
X6321429Y6500000D01*
X6178571Y6357143D01*
X6107143Y6214286D01*
X6035714Y5928571D01*
X6035714Y5714286D01*
X6107143Y5428571D01*
X6178571Y5285714D01*
X6321429Y5142857D01*
X6535714Y5071429D01*
X6678571Y5071429D01*
X6892857Y5142857D01*
X6964286Y5214286D01*
X6964286Y5714286D01*
X6678571Y5714286D01*
X6071429Y7642857D02*
X6285715Y7571429D01*
X6642858Y7571429D01*
X6785715Y7642857D01*
X6857144Y7714286D01*
X6928572Y7857143D01*
X6928572Y8000000D01*
X6857144Y8142857D01*
X6785715Y8214286D01*
X6642858Y8285714D01*
X6357144Y8357143D01*
X6214286Y8428571D01*
X6142858Y8500000D01*
X6071429Y8642857D01*
X6071429Y8785714D01*
X6142858Y8928571D01*
X6214286Y9000000D01*
X6357144Y9071429D01*
X6714286Y9071429D01*
X6928572Y9000000D01*
D14*
X9600000Y3350000D02*
X9600000Y2650000D01*
X8400000Y2650000D02*
X8400000Y3350000D01*
X30500000Y4300000D02*
X29500000Y4300000D01*
X29500000Y4300000D02*
X29500000Y2200000D01*
X30500000Y4300000D02*
X30500000Y2200000D01*
X11680000Y3500000D02*
X11680000Y2500000D01*
X10320000Y2500000D02*
X10320000Y3500000D01*
X27320000Y2500000D02*
X27320000Y3500000D01*
X28680000Y3500000D02*
X28680000Y2500000D01*
D12*
X17500000Y10000000D02*
G75*
G03X16500000Y10000000I-500000J0D01*
G01*
X13000000Y10000000D02*
X13000000Y5000000D01*
X26000000Y10000000D02*
X13000000Y10000000D01*
X26000000Y5000000D02*
X26000000Y10000000D01*
X13000000Y5000000D02*
X26000000Y5000000D01*
X1446428Y9910714D02*
X1446428Y10660714D01*
X1732143Y10660714D01*
X1803571Y10625000D01*
X1839286Y10589286D01*
X1875000Y10517857D01*
X1875000Y10410714D01*
X1839286Y10339286D01*
X1803571Y10303571D01*
X1732143Y10267857D01*
X1446428Y10267857D01*
X2589286Y9910714D02*
X2160714Y9910714D01*
X2375000Y9910714D02*
X2375000Y10660714D01*
X2303571Y10553571D01*
X2232143Y10482143D01*
X2160714Y10446429D01*
X8875000Y4732143D02*
X8839286Y4696429D01*
X8732143Y4660714D01*
X8660714Y4660714D01*
X8553571Y4696429D01*
X8482143Y4767857D01*
X8446428Y4839286D01*
X8410714Y4982143D01*
X8410714Y5089286D01*
X8446428Y5232143D01*
X8482143Y5303571D01*
X8553571Y5375000D01*
X8660714Y5410714D01*
X8732143Y5410714D01*
X8839286Y5375000D01*
X8875000Y5339286D01*
X9589286Y4660714D02*
X9160714Y4660714D01*
X9375000Y4660714D02*
X9375000Y5410714D01*
X9303571Y5303571D01*
X9232143Y5232143D01*
X9160714Y5196429D01*
X29446428Y4660714D02*
X29446428Y5410714D01*
X29625000Y5410714D01*
X29732143Y5375000D01*
X29803571Y5303571D01*
X29839286Y5232143D01*
X29875000Y5089286D01*
X29875000Y4982143D01*
X29839286Y4839286D01*
X29803571Y4767857D01*
X29732143Y4696429D01*
X29625000Y4660714D01*
X29446428Y4660714D01*
X30589286Y4660714D02*
X30160714Y4660714D01*
X30375000Y4660714D02*
X30375000Y5410714D01*
X30303571Y5303571D01*
X30232143Y5232143D01*
X30160714Y5196429D01*
X10875000Y4660714D02*
X10625000Y5017857D01*
X10446428Y4660714D02*
X10446428Y5410714D01*
X10732143Y5410714D01*
X10803571Y5375000D01*
X10839286Y5339286D01*
X10875000Y5267857D01*
X10875000Y5160714D01*
X10839286Y5089286D01*
X10803571Y5053571D01*
X10732143Y5017857D01*
X10446428Y5017857D01*
X11589286Y4660714D02*
X11160714Y4660714D01*
X11375000Y4660714D02*
X11375000Y5410714D01*
X11303571Y5303571D01*
X11232143Y5232143D01*
X11160714Y5196429D01*
X27875000Y4660714D02*
X27625000Y5017857D01*
X27446428Y4660714D02*
X27446428Y5410714D01*
X27732143Y5410714D01*
X27803571Y5375000D01*
X27839286Y5339286D01*
X27875000Y5267857D01*
X27875000Y5160714D01*
X27839286Y5089286D01*
X27803571Y5053571D01*
X27732143Y5017857D01*
X27446428Y5017857D01*
X28160714Y5339286D02*
X28196428Y5375000D01*
X28267857Y5410714D01*
X28446428Y5410714D01*
X28517857Y5375000D01*
X28553571Y5339286D01*
X28589286Y5267857D01*
X28589286Y5196429D01*
X28553571Y5089286D01*
X28125000Y4660714D01*
X28589286Y4660714D01*
X21100000Y4096429D02*
X21207143Y4060714D01*
X21385714Y4060714D01*
X21457143Y4096429D01*
X21492857Y4132143D01*
X21528572Y4203571D01*
X21528572Y4275000D01*
X21492857Y4346429D01*
X21457143Y4382143D01*
X21385714Y4417857D01*
X21242857Y4453571D01*
X21171429Y4489286D01*
X21135714Y4525000D01*
X21100000Y4596429D01*
X21100000Y4667857D01*
X21135714Y4739286D01*
X21171429Y4775000D01*
X21242857Y4810714D01*
X21421429Y4810714D01*
X21528572Y4775000D01*
X21778572Y4810714D02*
X21957143Y4060714D01*
X22100000Y4596429D01*
X22242858Y4060714D01*
X22421429Y4810714D01*
X23100001Y4060714D02*
X22671429Y4060714D01*
X22885715Y4060714D02*
X22885715Y4810714D01*
X22814286Y4703571D01*
X22742858Y4632143D01*
X22671429Y4596429D01*
M02*
