G04 #@! TF.FileFunction,Copper,L2,Bot,Signal*
%FSLAX46Y46*%
G04 Gerber Fmt 4.6, Leading zero omitted, Abs format (unit mm)*
G04 Created by KiCad (PCBNEW 4.0.6-e0-6349~53~ubuntu16.04.1) date Wed May  3 10:51:49 2017*
%MOMM*%
%LPD*%
G01*
G04 APERTURE LIST*
%ADD10C,0.100000*%
%ADD11R,1.700000X1.700000*%
%ADD12O,1.700000X1.700000*%
%ADD13C,5.000000*%
%ADD14O,2.000000X3.000000*%
%ADD15C,0.350000*%
G04 APERTURE END LIST*
D10*
D11*
X4500000Y3210000D03*
D12*
X4500000Y5750000D03*
X4500000Y8290000D03*
D13*
X29000000Y8500000D03*
X10000000Y8500000D03*
D14*
X14420000Y3000000D03*
X19500000Y3000000D03*
X24580000Y3000000D03*
D15*
G36*
X7437025Y10215762D02*
X6975526Y9104349D01*
X6974476Y7900930D01*
X7434035Y6788714D01*
X8284238Y5937025D01*
X9395651Y5475526D01*
X10599070Y5474476D01*
X11711286Y5934035D01*
X12562975Y6784238D01*
X13024474Y7895651D01*
X13025524Y9099070D01*
X12565965Y10211286D01*
X11878453Y10900000D01*
X27122459Y10900000D01*
X26437025Y10215762D01*
X25975526Y9104349D01*
X25974476Y7900930D01*
X26434035Y6788714D01*
X27284238Y5937025D01*
X28395651Y5475526D01*
X29599070Y5474476D01*
X30711286Y5934035D01*
X31400000Y6621547D01*
X31400000Y2059094D01*
X31282572Y1468742D01*
X30981638Y1018362D01*
X30531258Y717429D01*
X29940906Y600000D01*
X2059094Y600000D01*
X1468742Y717428D01*
X1018362Y1018362D01*
X717429Y1468742D01*
X600000Y2059094D01*
X600000Y4060000D01*
X3114715Y4060000D01*
X3114715Y2360000D01*
X3151323Y2165447D01*
X3266304Y1986761D01*
X3441744Y1866888D01*
X3650000Y1824715D01*
X5350000Y1824715D01*
X5544553Y1861323D01*
X5723239Y1976304D01*
X5843112Y2151744D01*
X5885285Y2360000D01*
X5885285Y2995000D01*
X12895000Y2995000D01*
X12895000Y2495000D01*
X13012997Y1911788D01*
X13345198Y1418126D01*
X13841028Y1089170D01*
X14176500Y994565D01*
X14415000Y1106259D01*
X14415000Y2995000D01*
X14425000Y2995000D01*
X14425000Y1106259D01*
X14663500Y994565D01*
X14998972Y1089170D01*
X15494802Y1418126D01*
X15827003Y1911788D01*
X15945000Y2495000D01*
X15945000Y2995000D01*
X14425000Y2995000D01*
X14415000Y2995000D01*
X12895000Y2995000D01*
X5885285Y2995000D01*
X5885285Y3505000D01*
X12895000Y3505000D01*
X12895000Y3005000D01*
X14415000Y3005000D01*
X14415000Y4893741D01*
X14425000Y4893741D01*
X14425000Y3005000D01*
X15945000Y3005000D01*
X15945000Y3505000D01*
X15937986Y3539672D01*
X17975000Y3539672D01*
X17975000Y2460328D01*
X18091084Y1876736D01*
X18421662Y1381990D01*
X18916408Y1051412D01*
X19500000Y935328D01*
X20083592Y1051412D01*
X20578338Y1381990D01*
X20908916Y1876736D01*
X21025000Y2460328D01*
X21025000Y3539672D01*
X23055000Y3539672D01*
X23055000Y2460328D01*
X23171084Y1876736D01*
X23501662Y1381990D01*
X23996408Y1051412D01*
X24580000Y935328D01*
X25163592Y1051412D01*
X25658338Y1381990D01*
X25988916Y1876736D01*
X26105000Y2460328D01*
X26105000Y3539672D01*
X25988916Y4123264D01*
X25658338Y4618010D01*
X25163592Y4948588D01*
X24580000Y5064672D01*
X23996408Y4948588D01*
X23501662Y4618010D01*
X23171084Y4123264D01*
X23055000Y3539672D01*
X21025000Y3539672D01*
X20908916Y4123264D01*
X20578338Y4618010D01*
X20083592Y4948588D01*
X19500000Y5064672D01*
X18916408Y4948588D01*
X18421662Y4618010D01*
X18091084Y4123264D01*
X17975000Y3539672D01*
X15937986Y3539672D01*
X15827003Y4088212D01*
X15494802Y4581874D01*
X14998972Y4910830D01*
X14663500Y5005435D01*
X14425000Y4893741D01*
X14415000Y4893741D01*
X14176500Y5005435D01*
X13841028Y4910830D01*
X13345198Y4581874D01*
X13012997Y4088212D01*
X12895000Y3505000D01*
X5885285Y3505000D01*
X5885285Y4060000D01*
X5848677Y4254553D01*
X5733696Y4433239D01*
X5558256Y4553112D01*
X5350000Y4595285D01*
X5238850Y4595285D01*
X5615329Y4945845D01*
X5838166Y5433876D01*
X5857280Y5529966D01*
X5743740Y5745000D01*
X4505000Y5745000D01*
X4505000Y5725000D01*
X4495000Y5725000D01*
X4495000Y5745000D01*
X3256260Y5745000D01*
X3142720Y5529966D01*
X3161834Y5433876D01*
X3384671Y4945845D01*
X3761150Y4595285D01*
X3650000Y4595285D01*
X3455447Y4558677D01*
X3276761Y4443696D01*
X3156888Y4268256D01*
X3114715Y4060000D01*
X600000Y4060000D01*
X600000Y8290000D01*
X3098062Y8290000D01*
X3202728Y7763810D01*
X3500790Y7317728D01*
X3946872Y7019666D01*
X4010947Y7006921D01*
X3777307Y6919760D01*
X3384671Y6554155D01*
X3161834Y6066124D01*
X3142720Y5970034D01*
X3256260Y5755000D01*
X4495000Y5755000D01*
X4495000Y5775000D01*
X4505000Y5775000D01*
X4505000Y5755000D01*
X5743740Y5755000D01*
X5857280Y5970034D01*
X5838166Y6066124D01*
X5615329Y6554155D01*
X5222693Y6919760D01*
X4989053Y7006921D01*
X5053128Y7019666D01*
X5499210Y7317728D01*
X5797272Y7763810D01*
X5901938Y8290000D01*
X5797272Y8816190D01*
X5499210Y9262272D01*
X5053128Y9560334D01*
X4526938Y9665000D01*
X4473062Y9665000D01*
X3946872Y9560334D01*
X3500790Y9262272D01*
X3202728Y8816190D01*
X3098062Y8290000D01*
X600000Y8290000D01*
X600000Y9440906D01*
X717429Y10031258D01*
X1018362Y10481638D01*
X1468742Y10782572D01*
X2059094Y10900000D01*
X8122459Y10900000D01*
X7437025Y10215762D01*
X7437025Y10215762D01*
G37*
X7437025Y10215762D02*
X6975526Y9104349D01*
X6974476Y7900930D01*
X7434035Y6788714D01*
X8284238Y5937025D01*
X9395651Y5475526D01*
X10599070Y5474476D01*
X11711286Y5934035D01*
X12562975Y6784238D01*
X13024474Y7895651D01*
X13025524Y9099070D01*
X12565965Y10211286D01*
X11878453Y10900000D01*
X27122459Y10900000D01*
X26437025Y10215762D01*
X25975526Y9104349D01*
X25974476Y7900930D01*
X26434035Y6788714D01*
X27284238Y5937025D01*
X28395651Y5475526D01*
X29599070Y5474476D01*
X30711286Y5934035D01*
X31400000Y6621547D01*
X31400000Y2059094D01*
X31282572Y1468742D01*
X30981638Y1018362D01*
X30531258Y717429D01*
X29940906Y600000D01*
X2059094Y600000D01*
X1468742Y717428D01*
X1018362Y1018362D01*
X717429Y1468742D01*
X600000Y2059094D01*
X600000Y4060000D01*
X3114715Y4060000D01*
X3114715Y2360000D01*
X3151323Y2165447D01*
X3266304Y1986761D01*
X3441744Y1866888D01*
X3650000Y1824715D01*
X5350000Y1824715D01*
X5544553Y1861323D01*
X5723239Y1976304D01*
X5843112Y2151744D01*
X5885285Y2360000D01*
X5885285Y2995000D01*
X12895000Y2995000D01*
X12895000Y2495000D01*
X13012997Y1911788D01*
X13345198Y1418126D01*
X13841028Y1089170D01*
X14176500Y994565D01*
X14415000Y1106259D01*
X14415000Y2995000D01*
X14425000Y2995000D01*
X14425000Y1106259D01*
X14663500Y994565D01*
X14998972Y1089170D01*
X15494802Y1418126D01*
X15827003Y1911788D01*
X15945000Y2495000D01*
X15945000Y2995000D01*
X14425000Y2995000D01*
X14415000Y2995000D01*
X12895000Y2995000D01*
X5885285Y2995000D01*
X5885285Y3505000D01*
X12895000Y3505000D01*
X12895000Y3005000D01*
X14415000Y3005000D01*
X14415000Y4893741D01*
X14425000Y4893741D01*
X14425000Y3005000D01*
X15945000Y3005000D01*
X15945000Y3505000D01*
X15937986Y3539672D01*
X17975000Y3539672D01*
X17975000Y2460328D01*
X18091084Y1876736D01*
X18421662Y1381990D01*
X18916408Y1051412D01*
X19500000Y935328D01*
X20083592Y1051412D01*
X20578338Y1381990D01*
X20908916Y1876736D01*
X21025000Y2460328D01*
X21025000Y3539672D01*
X23055000Y3539672D01*
X23055000Y2460328D01*
X23171084Y1876736D01*
X23501662Y1381990D01*
X23996408Y1051412D01*
X24580000Y935328D01*
X25163592Y1051412D01*
X25658338Y1381990D01*
X25988916Y1876736D01*
X26105000Y2460328D01*
X26105000Y3539672D01*
X25988916Y4123264D01*
X25658338Y4618010D01*
X25163592Y4948588D01*
X24580000Y5064672D01*
X23996408Y4948588D01*
X23501662Y4618010D01*
X23171084Y4123264D01*
X23055000Y3539672D01*
X21025000Y3539672D01*
X20908916Y4123264D01*
X20578338Y4618010D01*
X20083592Y4948588D01*
X19500000Y5064672D01*
X18916408Y4948588D01*
X18421662Y4618010D01*
X18091084Y4123264D01*
X17975000Y3539672D01*
X15937986Y3539672D01*
X15827003Y4088212D01*
X15494802Y4581874D01*
X14998972Y4910830D01*
X14663500Y5005435D01*
X14425000Y4893741D01*
X14415000Y4893741D01*
X14176500Y5005435D01*
X13841028Y4910830D01*
X13345198Y4581874D01*
X13012997Y4088212D01*
X12895000Y3505000D01*
X5885285Y3505000D01*
X5885285Y4060000D01*
X5848677Y4254553D01*
X5733696Y4433239D01*
X5558256Y4553112D01*
X5350000Y4595285D01*
X5238850Y4595285D01*
X5615329Y4945845D01*
X5838166Y5433876D01*
X5857280Y5529966D01*
X5743740Y5745000D01*
X4505000Y5745000D01*
X4505000Y5725000D01*
X4495000Y5725000D01*
X4495000Y5745000D01*
X3256260Y5745000D01*
X3142720Y5529966D01*
X3161834Y5433876D01*
X3384671Y4945845D01*
X3761150Y4595285D01*
X3650000Y4595285D01*
X3455447Y4558677D01*
X3276761Y4443696D01*
X3156888Y4268256D01*
X3114715Y4060000D01*
X600000Y4060000D01*
X600000Y8290000D01*
X3098062Y8290000D01*
X3202728Y7763810D01*
X3500790Y7317728D01*
X3946872Y7019666D01*
X4010947Y7006921D01*
X3777307Y6919760D01*
X3384671Y6554155D01*
X3161834Y6066124D01*
X3142720Y5970034D01*
X3256260Y5755000D01*
X4495000Y5755000D01*
X4495000Y5775000D01*
X4505000Y5775000D01*
X4505000Y5755000D01*
X5743740Y5755000D01*
X5857280Y5970034D01*
X5838166Y6066124D01*
X5615329Y6554155D01*
X5222693Y6919760D01*
X4989053Y7006921D01*
X5053128Y7019666D01*
X5499210Y7317728D01*
X5797272Y7763810D01*
X5901938Y8290000D01*
X5797272Y8816190D01*
X5499210Y9262272D01*
X5053128Y9560334D01*
X4526938Y9665000D01*
X4473062Y9665000D01*
X3946872Y9560334D01*
X3500790Y9262272D01*
X3202728Y8816190D01*
X3098062Y8290000D01*
X600000Y8290000D01*
X600000Y9440906D01*
X717429Y10031258D01*
X1018362Y10481638D01*
X1468742Y10782572D01*
X2059094Y10900000D01*
X8122459Y10900000D01*
X7437025Y10215762D01*
M02*
